<?xml version="1.0" standalone="no"?>
<!DOCTYPE svg PUBLIC "-//W3C//DTD SVG 20010904//EN"
 "http://www.w3.org/TR/2001/REC-SVG-20010904/DTD/svg10.dtd">
<svg version="1.0" xmlns="http://www.w3.org/2000/svg"
 width="2084.000000pt" height="2084.000000pt" viewBox="0 0 2084.000000 2084.000000"
 preserveAspectRatio="xMidYMid meet">

<g transform="translate(0.000000,2084.000000) scale(0.100000,-0.100000)"
fill="#000000" stroke="none">
<path d="M5115 11115 c-213 -47 -389 -185 -485 -380 -56 -112 -74 -190 -74
-315 0 -124 18 -201 73 -315 70 -143 169 -243 315 -317 62 -31 190 -68 238
-68 28 0 28 1 28 59 l0 58 -60 12 c-182 36 -356 190 -420 374 -31 86 -38 249
-16 337 55 218 228 393 429 434 l62 13 3 61 c3 71 7 69 -93 47z"/>
<path d="M3720 10420 l0 -690 380 0 380 0 0 65 0 65 -310 0 -310 0 0 625 0
625 -70 0 -70 0 0 -690z"/>
<path d="M8930 10584 c0 -310 -4 -524 -9 -522 -5 2 -71 71 -147 153 -76 83
-143 151 -149 152 -5 1 -31 -17 -58 -40 l-47 -43 251 -275 c138 -151 262 -285
275 -299 l24 -25 0 713 0 712 -70 0 -70 0 0 -526z"/>
<path d="M5721 10064 c-82 -119 -274 -224 -411 -224 -30 0 -30 0 -30 -61 l0
-62 74 6 c154 11 330 98 435 213 l51 56 -19 26 c-11 15 -32 39 -48 54 l-28 27
-24 -35z"/>
</g>
</svg>
